<svg width="109" height="45" viewBox="0 0 109 45" fill="none" xmlns="http://www.w3.org/2000/svg">
<path d="M9.82097 27.9313C10.6412 28.0778 11.337 28.5099 11.9082 29.2276C12.4794 29.9453 12.7651 30.7582 12.7651 31.6664C12.7651 32.4427 12.56 33.1457 12.1499 33.7756C11.7544 34.3907 11.1758 34.8814 10.4142 35.2476C9.65253 35.5991 8.76637 35.7749 7.75571 35.7749H1.64781V20.5052H7.47009C8.51004 20.5052 9.40352 20.6809 10.1505 21.0325C10.8975 21.384 11.4615 21.86 11.8423 22.4606C12.2231 23.0465 12.4135 23.7056 12.4135 24.4379C12.4135 25.3168 12.1792 26.0491 11.7105 26.635C11.2418 27.2209 10.6119 27.653 9.82097 27.9313ZM4.15249 26.9206H7.25038C8.07063 26.9206 8.70778 26.7376 9.16184 26.3714C9.63056 25.9906 9.86491 25.4486 9.86491 24.7455C9.86491 24.0571 9.63056 23.5225 9.16184 23.1417C8.70778 22.7462 8.07063 22.5485 7.25038 22.5485H4.15249V26.9206ZM7.536 33.7316C8.38554 33.7316 9.05199 33.5266 9.53535 33.1164C10.0187 32.7063 10.2604 32.1351 10.2604 31.4027C10.2604 30.6557 10.0041 30.0625 9.49141 29.6231C8.97875 29.1836 8.29766 28.9639 7.44812 28.9639H4.15249V33.7316H7.536ZM26.5822 29.4253C26.5822 29.8794 26.5529 30.2895 26.4943 30.6557H17.2445C17.3178 31.6224 17.6766 32.3987 18.3211 32.9846C18.9656 33.5705 19.7565 33.8634 20.694 33.8634C22.0415 33.8634 22.9936 33.2995 23.5502 32.1717H26.2526C25.8864 33.2849 25.22 34.2003 24.2532 34.918C23.3012 35.6211 22.1147 35.9726 20.694 35.9726C19.5368 35.9726 18.4969 35.7163 17.5741 35.2037C16.666 34.6764 15.9483 33.944 15.421 33.0066C14.9083 32.0545 14.652 30.956 14.652 29.7109C14.652 28.4659 14.901 27.3747 15.399 26.4373C15.9116 25.4852 16.622 24.7529 17.5302 24.2402C18.4529 23.7276 19.5075 23.4712 20.694 23.4712C21.8364 23.4712 22.8544 23.7202 23.7479 24.2182C24.6414 24.7162 25.3371 25.4193 25.8351 26.3274C26.3331 27.2209 26.5822 28.2535 26.5822 29.4253ZM23.9676 28.6344C23.953 27.7116 23.6234 26.9719 22.9789 26.4153C22.3345 25.8587 21.5362 25.5804 20.5841 25.5804C19.7199 25.5804 18.9802 25.8587 18.3651 26.4153C17.7499 26.9573 17.3837 27.697 17.2665 28.6344H23.9676ZM31.5517 19.5165V35.7749H29.047V19.5165H31.5517ZM34.0052 29.667C34.0052 28.4513 34.2542 27.3747 34.7522 26.4373C35.2649 25.4999 35.9533 24.7748 36.8175 24.2622C37.6963 23.7349 38.663 23.4712 39.7176 23.4712C40.6697 23.4712 41.4973 23.6616 42.2003 24.0425C42.9181 24.4086 43.4893 24.87 43.9141 25.4266V23.669H46.4407V35.7749H43.9141V33.9733C43.4893 34.5445 42.9107 35.0206 42.1784 35.4014C41.446 35.7822 40.6111 35.9726 39.6737 35.9726C38.6337 35.9726 37.6817 35.709 36.8175 35.1817C35.9533 34.6397 35.2649 33.8927 34.7522 32.9407C34.2542 31.9739 34.0052 30.8827 34.0052 29.667ZM43.9141 29.7109C43.9141 28.8761 43.7383 28.151 43.3868 27.5358C43.0499 26.9206 42.6031 26.4519 42.0465 26.1297C41.4899 25.8075 40.8894 25.6463 40.2449 25.6463C39.6005 25.6463 38.9999 25.8075 38.4433 26.1297C37.8867 26.4373 37.4327 26.8987 37.0811 27.5139C36.7442 28.1144 36.5758 28.8321 36.5758 29.667C36.5758 30.5019 36.7442 31.2343 37.0811 31.8641C37.4327 32.4939 37.8867 32.9773 38.4433 33.3142C39.0146 33.6364 39.6151 33.7975 40.2449 33.7975C40.8894 33.7975 41.4899 33.6364 42.0465 33.3142C42.6031 32.9919 43.0499 32.5232 43.3868 31.908C43.7383 31.2782 43.9141 30.5458 43.9141 29.7109ZM66.1156 25.0531C66.1156 25.8294 65.9325 26.5618 65.5663 27.2502C65.2002 27.9386 64.6143 28.5026 63.8087 28.942C63.0031 29.3667 61.9704 29.5791 60.7108 29.5791H57.9424V35.7749H55.4378V20.5052H60.7108C61.8826 20.5052 62.8712 20.7102 63.6768 21.1203C64.4971 21.5158 65.1049 22.0578 65.5004 22.7462C65.9105 23.4346 66.1156 24.2036 66.1156 25.0531ZM60.7108 27.5358C61.6628 27.5358 62.3732 27.3234 62.8419 26.8987C63.3107 26.4593 63.545 25.8441 63.545 25.0531C63.545 23.3833 62.6003 22.5485 60.7108 22.5485H57.9424V27.5358H60.7108ZM69.7787 22.0651C69.3247 22.0651 68.9438 21.9113 68.6362 21.6037C68.3287 21.2961 68.1749 20.9153 68.1749 20.4612C68.1749 20.0072 68.3287 19.6263 68.6362 19.3187C68.9438 19.0111 69.3247 18.8573 69.7787 18.8573C70.2181 18.8573 70.5916 19.0111 70.8992 19.3187C71.2068 19.6263 71.3606 20.0072 71.3606 20.4612C71.3606 20.9153 71.2068 21.2961 70.8992 21.6037C70.5916 21.9113 70.2181 22.0651 69.7787 22.0651ZM71.0091 23.669V35.7749H68.5044V23.669H71.0091ZM76.5166 33.7316H82.0093V35.7749H73.6164V33.7316L79.1311 25.7123H73.6164V23.669H82.0093V25.7123L76.5166 33.7316ZM86.8583 33.7316H92.351V35.7749H83.9582V33.7316L89.4728 25.7123H83.9582V23.669H92.351V25.7123L86.8583 33.7316ZM94.1461 29.667C94.1461 28.4513 94.3951 27.3747 94.8931 26.4373C95.4058 25.4999 96.0942 24.7748 96.9584 24.2622C97.8372 23.7349 98.8039 23.4712 99.8585 23.4712C100.811 23.4712 101.638 23.6616 102.341 24.0425C103.059 24.4086 103.63 24.87 104.055 25.4266V23.669H106.582V35.7749H104.055V33.9733C103.63 34.5445 103.052 35.0206 102.319 35.4014C101.587 35.7822 100.752 35.9726 99.8146 35.9726C98.7746 35.9726 97.8226 35.709 96.9584 35.1817C96.0942 34.6397 95.4058 33.8927 94.8931 32.9407C94.3951 31.9739 94.1461 30.8827 94.1461 29.667ZM104.055 29.7109C104.055 28.8761 103.879 28.151 103.528 27.5358C103.191 26.9206 102.744 26.4519 102.187 26.1297C101.631 25.8075 101.03 25.6463 100.386 25.6463C99.7414 25.6463 99.1408 25.8075 98.5842 26.1297C98.0276 26.4373 97.5736 26.8987 97.222 27.5139C96.8851 28.1144 96.7167 28.8321 96.7167 29.667C96.7167 30.5019 96.8851 31.2343 97.222 31.8641C97.5736 32.4939 98.0276 32.9773 98.5842 33.3142C99.1555 33.6364 99.756 33.7975 100.386 33.7975C101.03 33.7975 101.631 33.6364 102.187 33.3142C102.744 32.9919 103.191 32.5232 103.528 31.908C103.879 31.2782 104.055 30.5458 104.055 29.7109Z" fill="#D50407"/>
<path d="M25.5985 14V6.24868H28.3669C29.1215 6.24868 29.6957 6.45375 30.0894 6.86387C30.4913 7.26579 30.6923 7.81125 30.6923 8.50026C30.6923 9.18926 30.4831 9.74703 30.0648 10.1736C29.6464 10.5919 29.0805 10.801 28.3669 10.801H26.6074V14H25.5985ZM28.3423 9.89057C28.7442 9.89057 29.06 9.76343 29.2896 9.50916C29.5275 9.25488 29.6464 8.91858 29.6464 8.50026C29.6464 8.07373 29.5316 7.74153 29.3019 7.50366C29.0805 7.26579 28.7606 7.14685 28.3423 7.14685H26.6074V9.89057H28.3423ZM34.2255 6.24868H35.2344V14H34.2255V6.24868ZM40.2411 13.0895H44.0183V14H38.8384V13.5694L42.5172 7.14685H39.0599V6.24868H43.9445V6.66701L40.2411 13.0895ZM48.4956 13.0895H52.2728V14H47.093V13.5694L50.7718 7.14685H47.3144V6.24868H52.199V6.66701L48.4956 13.0895ZM60.6873 6.24868V7.14685H56.91V9.57068H60.1951V10.4811H56.91V13.0895H60.7611V14H55.9011V6.24868H60.6873ZM67.7974 6.24868C68.5439 6.24868 69.1139 6.44144 69.5077 6.82696C69.9096 7.21247 70.1105 7.73333 70.1105 8.38952C70.1105 8.87347 69.9875 9.29179 69.7414 9.6445C69.5036 9.9972 69.1673 10.2474 68.7325 10.395L70.2951 14H69.2001L67.7482 10.5673H65.6812V14H64.6723V6.24868H67.7974ZM65.6812 9.6568H67.7605C68.1625 9.6568 68.4823 9.54197 68.7202 9.3123C68.9581 9.08263 69.077 8.77504 69.077 8.38952C69.077 7.99581 68.9622 7.69232 68.7325 7.47905C68.5111 7.25759 68.1871 7.14685 67.7605 7.14685H65.6812V9.6568ZM73.9481 6.24868H74.957V14H73.9481V6.24868ZM82.9289 14L82.3999 12.2775H79.324L78.7949 14H77.7983L80.2714 6.24868H81.5509L83.9994 14H82.9289ZM80.8373 7.04842C80.8291 7.11404 80.8045 7.24938 80.7635 7.45444C80.7307 7.6513 80.6979 7.80305 80.6651 7.90968L79.607 11.367H82.1169L81.0711 7.90968C81.0383 7.80305 81.0014 7.6513 80.9604 7.45444C80.9193 7.24938 80.8947 7.11404 80.8865 7.04842H80.8373Z" fill="white"/>
<rect x="4.99994" y="10.4567" width="14.5008" height="1.31825" fill="#6A8D12"/>
<rect x="89.6221" y="10.4567" width="14.5008" height="1.31825" fill="#6A8D12"/>
</svg>
