<svg width="226" height="36" viewBox="0 0 226 36" fill="none" xmlns="http://www.w3.org/2000/svg">
<path d="M22.6782 18C22.6782 8.05887 30.7309 0 40.6644 0H208.014C217.947 0 226 8.05887 226 18C226 27.9411 217.947 36 208.014 36H40.6644C30.7309 36 22.6782 27.9411 22.6782 18Z" fill="#6A8D12"/>
<path d="M57.5244 15.9339C57.5244 16.5183 57.3837 17.0661 57.1021 17.5774C56.831 18.0887 56.3983 18.5009 55.804 18.8139C55.2201 19.127 54.4798 19.2835 53.5831 19.2835H51.7532V23.4783H49.5636V12.553H53.5831C54.4277 12.553 55.1471 12.6991 55.7415 12.9913C56.3358 13.2835 56.7789 13.6852 57.0709 14.1965C57.3732 14.7078 57.5244 15.287 57.5244 15.9339ZM53.4893 17.5148C54.094 17.5148 54.5424 17.3791 54.8343 17.1078C55.1263 16.8261 55.2722 16.4348 55.2722 15.9339C55.2722 14.8696 54.6779 14.3374 53.4893 14.3374H51.7532V17.5148H53.4893Z" fill="white"/>
<path d="M67.1337 18.9548C67.1337 19.2678 67.1129 19.5496 67.0711 19.8H60.7369C60.789 20.4261 61.008 20.9165 61.3938 21.2713C61.7796 21.6261 62.254 21.8035 62.817 21.8035C63.6303 21.8035 64.209 21.4539 64.5531 20.7548H66.9147C66.6645 21.5896 66.1849 22.2783 65.4758 22.8209C64.7668 23.353 63.8962 23.6191 62.8639 23.6191C62.0298 23.6191 61.2791 23.4365 60.6118 23.0713C59.9549 22.6957 59.4388 22.1687 59.0634 21.4904C58.6985 20.8122 58.516 20.0296 58.516 19.1426C58.516 18.2452 58.6985 17.4574 59.0634 16.7791C59.4283 16.1009 59.9392 15.5791 60.5961 15.2139C61.253 14.8487 62.009 14.6661 62.8639 14.6661C63.6877 14.6661 64.4227 14.8435 65.0692 15.1983C65.7261 15.553 66.2318 16.0591 66.5863 16.7165C66.9512 17.3635 67.1337 18.1096 67.1337 18.9548ZM64.8659 18.3287C64.8555 17.7652 64.6521 17.3165 64.2559 16.9826C63.8597 16.6383 63.3749 16.4661 62.8014 16.4661C62.2592 16.4661 61.8004 16.633 61.4251 16.967C61.0601 17.2904 60.8359 17.7443 60.7525 18.3287H64.8659Z" fill="white"/>
<path d="M72.4386 21.7409C73.3249 21.7409 73.9036 21.3443 74.1747 20.5513H76.5364C76.3174 21.3965 75.9108 22.0852 75.3164 22.6174C74.7325 23.1496 73.9974 23.4678 73.1112 23.5722V24.1826C73.6846 24.1826 74.1643 24.3287 74.5501 24.6209C74.9463 24.913 75.1444 25.3357 75.1444 25.8887C75.1444 26.4522 74.9411 26.8852 74.5344 27.1878C74.1382 27.4904 73.6481 27.6417 73.0642 27.6417H70.8434V26.3583H72.7045C72.9548 26.3583 73.1425 26.3217 73.2676 26.2487C73.4031 26.1757 73.4709 26.0452 73.4709 25.8574C73.4709 25.6696 73.4031 25.5391 73.2676 25.4661C73.1425 25.4035 72.9548 25.3722 72.7045 25.3722H71.7348V23.5722C71.0258 23.4678 70.4002 23.2226 69.858 22.8365C69.3263 22.44 68.9092 21.9287 68.6068 21.3026C68.3149 20.6661 68.1689 19.9461 68.1689 19.1426C68.1689 18.2452 68.3514 17.4626 68.7163 16.7948C69.0812 16.1165 69.5869 15.5948 70.2334 15.2296C70.8798 14.8539 71.6201 14.6661 72.4543 14.6661C73.5282 14.6661 74.4145 14.9374 75.1131 15.48C75.8221 16.0122 76.2965 16.7635 76.5364 17.7339H74.1747C74.0496 17.3583 73.8358 17.0661 73.5335 16.8574C73.2415 16.6383 72.8766 16.5287 72.4386 16.5287C71.813 16.5287 71.3178 16.7583 70.9528 17.2174C70.5879 17.6661 70.4054 18.3078 70.4054 19.1426C70.4054 19.967 70.5879 20.6087 70.9528 21.0678C71.3178 21.5165 71.813 21.7409 72.4386 21.7409Z" fill="white"/>
<path d="M77.5774 19.1113C77.5774 18.2348 77.7494 17.4574 78.0935 16.7791C78.448 16.1009 78.9225 15.5791 79.5168 15.2139C80.1215 14.8487 80.7941 14.6661 81.5344 14.6661C82.1808 14.6661 82.7439 14.7965 83.2235 15.0574C83.7136 15.3183 84.1046 15.647 84.3965 16.0435V14.807H86.6018V23.4783H84.3965V22.2104C84.115 22.6174 83.724 22.9565 83.2235 23.2278C82.7334 23.4887 82.1652 23.6191 81.5187 23.6191C80.7888 23.6191 80.1215 23.4313 79.5168 23.0557C78.9225 22.68 78.448 22.153 78.0935 21.4748C77.7494 20.7861 77.5774 19.9983 77.5774 19.1113ZM84.3965 19.1426C84.3965 18.6104 84.2922 18.1565 84.0837 17.7809C83.8752 17.3948 83.5936 17.1026 83.2391 16.9043C82.8846 16.6957 82.5041 16.5913 82.0974 16.5913C81.6908 16.5913 81.3154 16.6904 80.9713 16.8887C80.6272 17.087 80.3457 17.3791 80.1267 17.7652C79.9182 18.1409 79.8139 18.5896 79.8139 19.1113C79.8139 19.633 79.9182 20.0922 80.1267 20.4887C80.3457 20.8748 80.6272 21.1722 80.9713 21.3809C81.3258 21.5896 81.7012 21.6939 82.0974 21.6939C82.5041 21.6939 82.8846 21.5948 83.2391 21.3965C83.5936 21.1878 83.8752 20.8957 84.0837 20.52C84.2922 20.1339 84.3965 19.6748 84.3965 19.1426Z" fill="white"/>
<path d="M97.2686 14.6817C98.3008 14.6817 99.135 15.0104 99.771 15.6678C100.407 16.3148 100.725 17.2226 100.725 18.3913V23.4783H98.5354V18.6887C98.5354 18 98.3634 17.473 98.0193 17.1078C97.6752 16.7322 97.206 16.5443 96.6117 16.5443C96.0069 16.5443 95.5273 16.7322 95.1728 17.1078C94.8287 17.473 94.6567 18 94.6567 18.6887V23.4783H92.4671V14.807H94.6567V15.887C94.9486 15.5113 95.3188 15.2191 95.7671 15.0104C96.2259 14.7913 96.7264 14.6817 97.2686 14.6817Z" fill="white"/>
<path d="M106.655 23.6191C105.821 23.6191 105.07 23.4365 104.403 23.0713C103.735 22.6957 103.209 22.1687 102.823 21.4904C102.448 20.8122 102.26 20.0296 102.26 19.1426C102.26 18.2557 102.453 17.473 102.839 16.7948C103.235 16.1165 103.772 15.5948 104.449 15.2296C105.127 14.8539 105.883 14.6661 106.717 14.6661C107.551 14.6661 108.307 14.8539 108.985 15.2296C109.663 15.5948 110.195 16.1165 110.58 16.7948C110.977 17.473 111.175 18.2557 111.175 19.1426C111.175 20.0296 110.971 20.8122 110.565 21.4904C110.169 22.1687 109.626 22.6957 108.938 23.0713C108.26 23.4365 107.499 23.6191 106.655 23.6191ZM106.655 21.7096C107.051 21.7096 107.421 21.6157 107.765 21.4278C108.12 21.2296 108.401 20.9374 108.61 20.5513C108.818 20.1652 108.923 19.6957 108.923 19.1426C108.923 18.3183 108.704 17.687 108.266 17.2487C107.838 16.8 107.312 16.5757 106.686 16.5757C106.06 16.5757 105.534 16.8 105.106 17.2487C104.689 17.687 104.481 18.3183 104.481 19.1426C104.481 19.967 104.684 20.6035 105.091 21.0522C105.508 21.4904 106.029 21.7096 106.655 21.7096Z" fill="white"/>
<path d="M131.1 12.553L128.05 23.4783H125.469L123.421 15.6991L121.278 23.4783L118.713 23.4939L115.773 12.553H118.119L120.042 21.0365L122.263 12.553H124.703L126.799 20.9896L128.738 12.553H131.1Z" fill="white"/>
<path d="M137.409 14.6817C138.066 14.6817 138.65 14.8278 139.161 15.12C139.672 15.4017 140.068 15.8243 140.35 16.3878C140.642 16.9409 140.788 17.6087 140.788 18.3913V23.4783H138.598V18.6887C138.598 18 138.426 17.473 138.082 17.1078C137.738 16.7322 137.269 16.5443 136.674 16.5443C136.07 16.5443 135.59 16.7322 135.235 17.1078C134.891 17.473 134.719 18 134.719 18.6887V23.4783H132.53V11.8957H134.719V15.887C135.001 15.5113 135.376 15.2191 135.845 15.0104C136.315 14.7913 136.836 14.6817 137.409 14.6817Z" fill="white"/>
<path d="M142.307 19.1113C142.307 18.2348 142.479 17.4574 142.823 16.7791C143.177 16.1009 143.652 15.5791 144.246 15.2139C144.851 14.8487 145.523 14.6661 146.264 14.6661C146.91 14.6661 147.473 14.7965 147.953 15.0574C148.443 15.3183 148.834 15.647 149.126 16.0435V14.807H151.331V23.4783H149.126V22.2104C148.844 22.6174 148.453 22.9565 147.953 23.2278C147.463 23.4887 146.895 23.6191 146.248 23.6191C145.518 23.6191 144.851 23.4313 144.246 23.0557C143.652 22.68 143.177 22.153 142.823 21.4748C142.479 20.7861 142.307 19.9983 142.307 19.1113ZM149.126 19.1426C149.126 18.6104 149.022 18.1565 148.813 17.7809C148.605 17.3948 148.323 17.1026 147.969 16.9043C147.614 16.6957 147.233 16.5913 146.827 16.5913C146.42 16.5913 146.045 16.6904 145.701 16.8887C145.357 17.087 145.075 17.3791 144.856 17.7652C144.648 18.1409 144.543 18.5896 144.543 19.1113C144.543 19.633 144.648 20.0922 144.856 20.4887C145.075 20.8748 145.357 21.1722 145.701 21.3809C146.055 21.5896 146.431 21.6939 146.827 21.6939C147.233 21.6939 147.614 21.5948 147.969 21.3965C148.323 21.1878 148.605 20.8957 148.813 20.52C149.022 20.1339 149.126 19.6748 149.126 19.1426Z" fill="white"/>
<path d="M156.019 16.607V20.8017C156.019 21.0939 156.087 21.3078 156.222 21.4435C156.368 21.5687 156.608 21.6313 156.942 21.6313H157.958V23.4783H156.582C154.737 23.4783 153.814 22.5809 153.814 20.7861V16.607H152.782V14.807H153.814V12.6626H156.019V14.807H157.958V16.607H156.019Z" fill="white"/>
<path d="M162.849 23.6191C162.14 23.6191 161.504 23.4939 160.941 23.2435C160.378 22.9826 159.93 22.633 159.596 22.1948C159.273 21.7565 159.095 21.2713 159.064 20.7391H161.269C161.311 21.073 161.473 21.3496 161.754 21.5687C162.046 21.7878 162.406 21.8974 162.833 21.8974C163.25 21.8974 163.574 21.8139 163.803 21.647C164.043 21.48 164.163 21.2661 164.163 21.0052C164.163 20.7235 164.017 20.5148 163.725 20.3791C163.443 20.233 162.99 20.0765 162.364 19.9096C161.718 19.753 161.186 19.5913 160.769 19.4243C160.362 19.2574 160.008 19.0017 159.705 18.6574C159.413 18.313 159.267 17.8487 159.267 17.2643C159.267 16.7843 159.403 16.3461 159.674 15.9496C159.956 15.553 160.352 15.24 160.863 15.0104C161.384 14.7809 161.994 14.6661 162.693 14.6661C163.725 14.6661 164.549 14.927 165.164 15.4487C165.779 15.96 166.118 16.6539 166.18 17.5304H164.085C164.053 17.1861 163.907 16.9148 163.647 16.7165C163.396 16.5078 163.058 16.4035 162.63 16.4035C162.234 16.4035 161.926 16.4765 161.707 16.6226C161.499 16.7687 161.394 16.9722 161.394 17.233C161.394 17.5252 161.54 17.7496 161.832 17.9061C162.124 18.0522 162.578 18.2035 163.193 18.36C163.819 18.5165 164.335 18.6783 164.741 18.8452C165.148 19.0122 165.497 19.273 165.789 19.6278C166.092 19.9722 166.248 20.4313 166.259 21.0052C166.259 21.5061 166.118 21.9548 165.836 22.3513C165.565 22.7478 165.169 23.0609 164.648 23.2904C164.137 23.5096 163.537 23.6191 162.849 23.6191Z" fill="white"/>
<path d="M174.75 21.3965H170.402L169.683 23.4783H167.383L171.309 12.5374H173.858L177.784 23.4783H175.469L174.75 21.3965ZM174.156 19.6435L172.576 15.073L170.996 19.6435H174.156Z" fill="white"/>
<path d="M181.441 16.0591C181.723 15.6626 182.108 15.3339 182.598 15.073C183.099 14.8017 183.667 14.6661 184.303 14.6661C185.044 14.6661 185.711 14.8487 186.305 15.2139C186.91 15.5791 187.384 16.1009 187.728 16.7791C188.083 17.447 188.26 18.2243 188.26 19.1113C188.26 19.9983 188.083 20.7861 187.728 21.4748C187.384 22.153 186.91 22.68 186.305 23.0557C185.711 23.4313 185.044 23.6191 184.303 23.6191C183.667 23.6191 183.104 23.4887 182.614 23.2278C182.134 22.967 181.743 22.6383 181.441 22.2417V27.6104H179.252V14.807H181.441V16.0591ZM186.024 19.1113C186.024 18.5896 185.914 18.1409 185.695 17.7652C185.487 17.3791 185.205 17.087 184.851 16.8887C184.507 16.6904 184.131 16.5913 183.725 16.5913C183.328 16.5913 182.953 16.6957 182.598 16.9043C182.254 17.1026 181.973 17.3948 181.754 17.7809C181.545 18.167 181.441 18.6209 181.441 19.1426C181.441 19.6643 181.545 20.1183 181.754 20.5043C181.973 20.8904 182.254 21.1878 182.598 21.3965C182.953 21.5948 183.328 21.6939 183.725 21.6939C184.131 21.6939 184.507 21.5896 184.851 21.3809C185.205 21.1722 185.487 20.8748 185.695 20.4887C185.914 20.1026 186.024 19.6435 186.024 19.1113Z" fill="white"/>
<path d="M192.041 16.0591C192.322 15.6626 192.708 15.3339 193.198 15.073C193.699 14.8017 194.267 14.6661 194.903 14.6661C195.643 14.6661 196.311 14.8487 196.905 15.2139C197.51 15.5791 197.984 16.1009 198.328 16.7791C198.683 17.447 198.86 18.2243 198.86 19.1113C198.86 19.9983 198.683 20.7861 198.328 21.4748C197.984 22.153 197.51 22.68 196.905 23.0557C196.311 23.4313 195.643 23.6191 194.903 23.6191C194.267 23.6191 193.704 23.4887 193.214 23.2278C192.734 22.967 192.343 22.6383 192.041 22.2417V27.6104H189.851V14.807H192.041V16.0591ZM196.624 19.1113C196.624 18.5896 196.514 18.1409 196.295 17.7652C196.087 17.3791 195.805 17.087 195.451 16.8887C195.106 16.6904 194.731 16.5913 194.324 16.5913C193.928 16.5913 193.553 16.6957 193.198 16.9043C192.854 17.1026 192.573 17.3948 192.354 17.7809C192.145 18.167 192.041 18.6209 192.041 19.1426C192.041 19.6643 192.145 20.1183 192.354 20.5043C192.573 20.8904 192.854 21.1878 193.198 21.3965C193.553 21.5948 193.928 21.6939 194.324 21.6939C194.731 21.6939 195.106 21.5896 195.451 21.3809C195.805 21.1722 196.087 20.8748 196.295 20.4887C196.514 20.1026 196.624 19.6435 196.624 19.1113Z" fill="white"/>
<path fill-rule="evenodd" clip-rule="evenodd" d="M17.6038 2.88043C9.38245 2.88043 2.69718 9.52031 2.69718 17.683C2.69718 20.92 3.7513 23.9212 5.5362 26.3618L3.67437 31.8578L9.40168 30.0366C11.7551 31.5823 14.5737 32.4832 17.6038 32.4832C25.8216 32.4832 32.5092 25.8434 32.5092 17.6818C32.5092 9.52031 25.8216 2.88043 17.6038 2.88043Z" fill="url(#paint0_linear_89_15)"/>
<path fill-rule="evenodd" clip-rule="evenodd" d="M34.4083 17.5567C34.4083 26.8189 26.8456 34.3297 17.5173 34.3297C14.5544 34.3297 11.7719 33.5731 9.35239 32.2427L0 35.2174L3.04815 26.2187C1.50965 23.6902 0.625015 20.7263 0.625015 17.5579C0.625015 8.29218 8.1877 0.782609 17.5173 0.782609C26.8468 0.782609 34.4083 8.29217 34.4083 17.5567ZM17.5173 3.4542C9.68414 3.4542 3.31499 9.78013 3.31499 17.5567C3.31499 20.6409 4.31862 23.499 6.01938 25.8253L4.2465 31.0614L9.70337 29.3269C11.945 30.7992 14.6314 31.6581 17.5173 31.6581C25.3468 31.6581 31.7183 25.3321 31.7183 17.5567C31.7183 9.78134 25.3468 3.4542 17.5173 3.4542ZM26.0463 21.4204C25.9417 21.2484 25.6653 21.1461 25.253 20.9404C24.8384 20.7347 22.8022 19.74 22.4224 19.6028C22.0438 19.4657 21.765 19.3971 21.4909 19.8085C21.2145 20.2199 20.4212 21.1461 20.1784 21.4204C19.938 21.6958 19.6964 21.7283 19.2829 21.5226C18.8683 21.3169 17.5329 20.8815 15.9523 19.4825C14.7227 18.3915 13.891 17.0467 13.6482 16.6353C13.4078 16.2239 13.6241 16.0026 13.8297 15.7969C14.016 15.6117 14.2443 15.317 14.4511 15.0776C14.659 14.837 14.7275 14.6638 14.8658 14.3896C15.004 14.1153 14.9355 13.8759 14.8309 13.6702C14.7287 13.4645 13.8994 11.4413 13.5544 10.6173C13.2119 9.79577 12.8657 9.82584 12.6229 9.82584C12.3801 9.82584 11.9354 9.89802 11.9354 9.89802C11.9354 9.89802 11.1048 10.0003 10.7262 10.4116C10.3476 10.823 9.27787 11.8178 9.27787 13.8398C9.27787 15.8619 10.7599 17.819 10.9678 18.092C11.1758 18.3675 13.8309 22.6545 18.0413 24.3001C22.2506 25.9456 22.2506 25.3971 23.0102 25.3273C23.7686 25.26 25.4598 24.3338 25.8047 23.3727C26.1497 22.4128 26.1497 21.5888 26.0475 21.418L26.0463 21.4204Z" fill="white"/>
<defs>
<linearGradient id="paint0_linear_89_15" x1="113.005" y1="0" x2="113.005" y2="36.0015" gradientUnits="userSpaceOnUse">
<stop stop-color="#6A8D12"/>
<stop offset="1" stop-color="#06853A"/>
</linearGradient>
</defs>
</svg>
