<svg width="106" height="30" viewBox="0 0 106 30" fill="none" xmlns="http://www.w3.org/2000/svg">
<path d="M8.82098 21.9313C9.64123 22.0778 10.337 22.5098 10.9082 23.2276C11.4795 23.9453 11.7651 24.7582 11.7651 25.6663C11.7651 26.4426 11.56 27.1457 11.1499 27.7755C10.7544 28.3907 10.1759 28.8814 9.4142 29.2476C8.65254 29.5991 7.76638 29.7749 6.75572 29.7749H0.647827V14.5051H6.4701C7.51006 14.5051 8.40354 14.6809 9.15055 15.0324C9.89755 15.384 10.4615 15.86 10.8423 16.4605C11.2231 17.0464 11.4135 17.7056 11.4135 18.4379C11.4135 19.3168 11.1792 20.0491 10.7105 20.635C10.2418 21.2209 9.61193 21.653 8.82098 21.9313ZM3.1525 20.9206H6.25039C7.07064 20.9206 7.70779 20.7375 8.16186 20.3714C8.63057 19.9905 8.86493 19.4486 8.86493 18.7455C8.86493 18.0571 8.63057 17.5225 8.16186 17.1416C7.70779 16.7462 7.07064 16.5484 6.25039 16.5484H3.1525V20.9206ZM6.53602 27.7316C7.38555 27.7316 8.052 27.5265 8.53536 27.1164C9.01872 26.7063 9.2604 26.135 9.2604 25.4027C9.2604 24.6557 9.00407 24.0625 8.49142 23.623C7.97877 23.1836 7.29767 22.9639 6.44813 22.9639H3.1525V27.7316H6.53602Z" fill="#D50407"/>
<path d="M25.5822 23.4253C25.5822 23.8794 25.5529 24.2895 25.4943 24.6557H16.2446C16.3178 25.6224 16.6766 26.3987 17.3211 26.9846C17.9656 27.5705 18.7566 27.8634 19.694 27.8634C21.0415 27.8634 21.9936 27.2995 22.5502 26.1717H25.2526C24.8864 27.2848 24.22 28.2003 23.2533 28.918C22.3012 29.6211 21.1148 29.9726 19.694 29.9726C18.5368 29.9726 17.4969 29.7163 16.5741 29.2036C15.666 28.6763 14.9483 27.944 14.421 27.0065C13.9083 26.0545 13.652 24.9559 13.652 23.7109C13.652 22.4659 13.901 21.3747 14.399 20.4373C14.9117 19.4852 15.622 18.7528 16.5302 18.2402C17.453 17.7275 18.5076 17.4712 19.694 17.4712C20.8365 17.4712 21.8544 17.7202 22.7479 18.2182C23.6414 18.7162 24.3372 19.4193 24.8352 20.3274C25.3332 21.2209 25.5822 22.2535 25.5822 23.4253ZM22.9676 22.6343C22.953 21.7116 22.6234 20.9719 21.9789 20.4153C21.3345 19.8587 20.5362 19.5804 19.5841 19.5804C18.7199 19.5804 17.9803 19.8587 17.3651 20.4153C16.7499 20.9572 16.3837 21.6969 16.2665 22.6343H22.9676Z" fill="#D50407"/>
<path d="M30.5517 13.5164V29.7749H28.047V13.5164H30.5517Z" fill="#D50407"/>
<path d="M33.0052 23.667C33.0052 22.4513 33.2542 21.3747 33.7522 20.4373C34.2649 19.4998 34.9533 18.7748 35.8175 18.2621C36.6963 17.7349 37.663 17.4712 38.7176 17.4712C39.6697 17.4712 40.4973 17.6616 41.2003 18.0424C41.9181 18.4086 42.4893 18.87 42.9141 19.4266V17.6689H45.4407V29.7749H42.9141V27.9733C42.4893 28.5445 41.9107 29.0205 41.1784 29.4014C40.446 29.7822 39.6111 29.9726 38.6737 29.9726C37.6337 29.9726 36.6817 29.709 35.8175 29.1817C34.9533 28.6397 34.2649 27.8927 33.7522 26.9406C33.2542 25.9739 33.0052 24.8827 33.0052 23.667ZM42.9141 23.7109C42.9141 22.876 42.7383 22.151 42.3868 21.5358C42.0499 20.9206 41.6031 20.4519 41.0466 20.1297C40.49 19.8074 39.8894 19.6463 39.2449 19.6463C38.6005 19.6463 37.9999 19.8074 37.4433 20.1297C36.8867 20.4373 36.4327 20.8987 36.0811 21.5138C35.7443 22.1144 35.5758 22.8321 35.5758 23.667C35.5758 24.5019 35.7443 25.2342 36.0811 25.8641C36.4327 26.4939 36.8867 26.9773 37.4433 27.3141C38.0146 27.6364 38.6151 27.7975 39.2449 27.7975C39.8894 27.7975 40.49 27.6364 41.0466 27.3141C41.6031 26.9919 42.0499 26.5232 42.3868 25.908C42.7383 25.2782 42.9141 24.5458 42.9141 23.7109Z" fill="#D50407"/>
<path d="M65.1156 19.0531C65.1156 19.8294 64.9325 20.5618 64.5663 21.2502C64.2002 21.9386 63.6143 22.5025 62.8087 22.9419C62.0031 23.3667 60.9705 23.5791 59.7108 23.5791H56.9425V29.7749H54.4378V14.5051H59.7108C60.8826 14.5051 61.8713 14.7102 62.6769 15.1203C63.4971 15.5158 64.105 16.0577 64.5004 16.7462C64.9106 17.4346 65.1156 18.2036 65.1156 19.0531ZM59.7108 21.5358C60.6629 21.5358 61.3732 21.3234 61.842 20.8987C62.3107 20.4592 62.545 19.8441 62.545 19.0531C62.545 17.3833 61.6003 16.5484 59.7108 16.5484H56.9425V21.5358H59.7108Z" fill="#D50407"/>
<path d="M68.7787 16.0651C68.3247 16.0651 67.9439 15.9113 67.6363 15.6037C67.3287 15.2961 67.1749 14.9153 67.1749 14.4612C67.1749 14.0071 67.3287 13.6263 67.6363 13.3187C67.9439 13.0111 68.3247 12.8573 68.7787 12.8573C69.2182 12.8573 69.5917 13.0111 69.8993 13.3187C70.2068 13.6263 70.3606 14.0071 70.3606 14.4612C70.3606 14.9153 70.2068 15.2961 69.8993 15.6037C69.5917 15.9113 69.2182 16.0651 68.7787 16.0651ZM70.0091 17.6689V29.7749H67.5044V17.6689H70.0091Z" fill="#D50407"/>
<path d="M75.5166 27.7316H81.0093V29.7749H72.6164V27.7316L78.1311 19.7122H72.6164V17.6689H81.0093V19.7122L75.5166 27.7316Z" fill="#D50407"/>
<path d="M85.8583 27.7316H91.351V29.7749H82.9582V27.7316L88.4729 19.7122H82.9582V17.6689H91.351V19.7122L85.8583 27.7316Z" fill="#D50407"/>
<path d="M93.1461 23.667C93.1461 22.4513 93.3951 21.3747 93.8931 20.4373C94.4058 19.4998 95.0942 18.7748 95.9584 18.2621C96.8372 17.7349 97.8039 17.4712 98.8585 17.4712C99.8106 17.4712 100.638 17.6616 101.341 18.0424C102.059 18.4086 102.63 18.87 103.055 19.4266V17.6689H105.582V29.7749H103.055V27.9733C102.63 28.5445 102.052 29.0205 101.319 29.4014C100.587 29.7822 99.752 29.9726 98.8146 29.9726C97.7747 29.9726 96.8226 29.709 95.9584 29.1817C95.0942 28.6397 94.4058 27.8927 93.8931 26.9406C93.3951 25.9739 93.1461 24.8827 93.1461 23.667ZM103.055 23.7109C103.055 22.876 102.879 22.151 102.528 21.5358C102.191 20.9206 101.744 20.4519 101.187 20.1297C100.631 19.8074 100.03 19.6463 99.3858 19.6463C98.7414 19.6463 98.1408 19.8074 97.5842 20.1297C97.0276 20.4373 96.5736 20.8987 96.222 21.5138C95.8852 22.1144 95.7167 22.8321 95.7167 23.667C95.7167 24.5019 95.8852 25.2342 96.222 25.8641C96.5736 26.4939 97.0276 26.9773 97.5842 27.3141C98.1555 27.6364 98.756 27.7975 99.3858 27.7975C100.03 27.7975 100.631 27.6364 101.187 27.3141C101.744 26.9919 102.191 26.5232 102.528 25.908C102.879 25.2782 103.055 24.5458 103.055 23.7109Z" fill="#D50407"/>
<path d="M24.5985 7.99997V0.248657H27.3669C28.1215 0.248657 28.6957 0.453719 29.0894 0.863841C29.4913 1.26576 29.6923 1.81122 29.6923 2.50023C29.6923 3.18924 29.4831 3.747 29.0648 4.17353C28.6465 4.59185 28.0805 4.80102 27.3669 4.80102H25.6074V7.99997H24.5985ZM27.3423 3.89055C27.7442 3.89055 28.06 3.76341 28.2896 3.50913C28.5275 3.25486 28.6465 2.91855 28.6465 2.50023C28.6465 2.0737 28.5316 1.7415 28.302 1.50363C28.0805 1.26576 27.7606 1.14683 27.3423 1.14683H25.6074V3.89055H27.3423Z" fill="white"/>
<path d="M33.2255 0.248657H34.2344V7.99997H33.2255V0.248657Z" fill="white"/>
<path d="M39.2411 7.0895H43.0183V7.99997H37.8385V7.56934L41.5173 1.14683H38.0599V0.248657H42.9445V0.666983L39.2411 7.0895Z" fill="white"/>
<path d="M47.4956 7.0895H51.2728V7.99997H46.093V7.56934L49.7718 1.14683H46.3144V0.248657H51.199V0.666983L47.4956 7.0895Z" fill="white"/>
<path d="M59.6873 0.248657V1.14683H55.91V3.57065H59.1951V4.48112H55.91V7.0895H59.7611V7.99997H54.9011V0.248657H59.6873Z" fill="white"/>
<path d="M66.7975 0.248657C67.5439 0.248657 68.1139 0.441415 68.5077 0.826931C68.9096 1.21245 69.1105 1.7333 69.1105 2.3895C69.1105 2.87344 68.9875 3.29177 68.7414 3.64447C68.5036 3.99718 68.1673 4.24735 67.7325 4.395L69.2951 7.99997H68.2001L66.7482 4.56725H64.6812V7.99997H63.6723V0.248657H66.7975ZM64.6812 3.65678H66.7605C67.1625 3.65678 67.4824 3.54194 67.7202 3.31227C67.9581 3.0826 68.077 2.77501 68.077 2.3895C68.077 1.99578 67.9622 1.69229 67.7325 1.47903C67.5111 1.25756 67.1871 1.14683 66.7605 1.14683H64.6812V3.65678Z" fill="white"/>
<path d="M72.9481 0.248657H73.957V7.99997H72.9481V0.248657Z" fill="white"/>
<path d="M81.929 7.99997L81.3999 6.27746H78.324L77.7949 7.99997H76.7983L79.2714 0.248657H80.5509L82.9994 7.99997H81.929ZM79.8373 1.0484C79.8291 1.11402 79.8045 1.24936 79.7635 1.45442C79.7307 1.65128 79.6979 1.80302 79.6651 1.90965L78.607 5.36699H81.1169L80.0711 1.90965C80.0383 1.80302 80.0014 1.65128 79.9604 1.45442C79.9194 1.24936 79.8948 1.11402 79.8866 1.0484H79.8373Z" fill="white"/>
<path d="M3.99995 4.45664H18.5007V5.77489H3.99995V4.45664Z" fill="#6A8D12"/>
<path d="M88.6222 4.45664H103.123V5.77489H88.6222V4.45664Z" fill="#6A8D12"/>
</svg>
